# Blender v2.78 (sub 0) OBJ File: 'base.003.blend'
# www.blender.org
mtllib base.004.mtl
o Cube
v -0.315436 0.005427 0.400000
v -0.336120 0.005427 0.391432
v -0.391432 0.005427 0.336120
v -0.400000 0.005427 0.315436
v -0.400000 0.005427 -0.315436
v -0.391432 0.005427 -0.336120
v -0.336120 0.005427 -0.391432
v -0.315436 0.005427 -0.400000
v 0.400000 0.005427 0.315436
v 0.391432 0.005427 0.336120
v 0.336120 0.005427 0.391432
v 0.315436 0.005427 0.400000
v 0.315436 0.005427 -0.400000
v 0.336120 0.005427 -0.391432
v 0.391432 0.005427 -0.336120
v 0.400000 0.005427 -0.315436
v -0.361452 0.086058 0.302663
v -0.355143 0.086058 0.317895
v -0.400000 0.062345 0.315436
v -0.391432 0.062345 0.336120
v -0.317895 0.086058 0.355143
v -0.302663 0.086058 0.361452
v -0.336120 0.062345 0.391432
v -0.315436 0.062345 0.400000
v -0.302663 0.086058 -0.361452
v -0.317895 0.086058 -0.355143
v -0.315436 0.062345 -0.400000
v -0.336120 0.062345 -0.391432
v -0.355143 0.086058 -0.317895
v -0.361452 0.086058 -0.302663
v -0.391432 0.062345 -0.336120
v -0.400000 0.062345 -0.315436
v 0.302663 0.086058 0.361452
v 0.317895 0.086058 0.355143
v 0.315436 0.062345 0.400000
v 0.336120 0.062345 0.391432
v 0.355143 0.086058 0.317895
v 0.361452 0.086058 0.302663
v 0.391432 0.062345 0.336120
v 0.400000 0.062345 0.315436
v 0.361452 0.086058 -0.302663
v 0.355143 0.086058 -0.317895
v 0.400000 0.062345 -0.315436
v 0.391432 0.062345 -0.336120
v 0.317895 0.086058 -0.355143
v 0.302663 0.086058 -0.361452
v 0.336120 0.062345 -0.391432
v 0.315436 0.062345 -0.400000
v -0.326298 0.086058 0.367719
v -0.305614 0.086058 0.376287
v -0.305614 0.086058 -0.376287
v -0.326298 0.086058 -0.367719
v 0.305614 0.086058 0.376287
v 0.326298 0.086058 0.367719
v 0.326298 0.086058 -0.367719
v 0.305614 0.086058 -0.376287
v -0.367719 0.086058 0.326298
v -0.376287 0.086058 0.305614
v -0.376287 0.086058 -0.305614
v -0.367719 0.086058 -0.326298
v 0.367719 0.086058 -0.326298
v 0.376287 0.086058 -0.305614
v 0.376287 0.086058 0.305614
v 0.367719 0.086058 0.326298
v 0.000000 0.086058 0.000000
v -0.320634 0.086058 0.359242
v -0.303625 0.086058 0.366287
v -0.303625 0.086058 -0.366287
v -0.320634 0.086058 -0.359242
v 0.303625 0.086058 0.366287
v 0.320634 0.086058 0.359242
v 0.320634 0.086058 -0.359242
v 0.303625 0.086058 -0.366287
v -0.359242 0.086058 0.320634
v -0.366287 0.086058 0.303625
v -0.366287 0.086058 -0.303625
v -0.359242 0.086058 -0.320634
v 0.359242 0.086058 -0.320634
v 0.366287 0.086058 -0.303625
v 0.366287 0.086058 0.303625
v 0.359242 0.086058 0.320634
vt 0.0806 0.5618
vt 0.4398 0.9537
vt 0.0484 0.5971
vt 0.3968 0.0804
vt 0.0425 0.4020
vt 0.3651 0.0513
vt 0.4990 0.0593
vt 0.4161 0.0006
vt 0.5023 0.0001
vt 0.5835 0.9931
vt 0.5005 0.9340
vt 0.5782 0.9321
vt 0.0001 0.5405
vt 0.0584 0.4575
vt 0.0618 0.5346
vt 0.6030 0.9130
vt 0.9575 0.5913
vt 0.6347 0.9422
vt 0.9999 0.4523
vt 0.9416 0.5357
vt 0.9381 0.4584
vt 0.0978 0.4428
vt 0.4104 0.1030
vt 0.4848 0.8920
vt 0.4720 0.9184
vt 0.9022 0.5505
vt 0.9258 0.5622
vt 0.5147 0.1012
vt 0.9192 0.4312
vt 0.8941 0.4465
vt 0.5684 0.8987
vt 0.5092 0.8994
vt 0.4313 0.0948
vt 0.4904 0.0939
vt 0.9036 0.4698
vt 0.9082 0.5287
vt 0.0962 0.5232
vt 0.0917 0.4645
vt 0.5225 0.0625
vt 0.3983 0.0668
vt 0.0615 0.4350
vt 0.0675 0.5587
vt 0.1056 0.5466
vt 0.4769 0.9307
vt 0.6014 0.9268
vt 0.5894 0.8904
vt 0.9386 0.5582
vt 0.9323 0.4343
vt 0.5263 0.0016
vt 0.3904 0.0034
vt 0.4215 0.0614
vt 0.0003 0.4542
vt 0.9970 0.4261
vt 0.0029 0.5667
vt 0.4970 0.9934
vt 0.9999 0.5389
vt 0.9983 0.5624
vt 0.6092 0.9904
vt 0.5597 0.0395
vt 0.9513 0.3959
vt 0.4886 0.1046
vt 0.5102 0.1104
vt 0.1067 0.5205
vt 0.8931 0.4726
vt 0.5109 0.8887
vt 0.4894 0.8828
vt 0.4332 0.1047
vt 0.1017 0.4654
vt 0.1062 0.4469
vt 0.5666 0.8887
vt 0.8983 0.5279
vt 0.8938 0.5464
vt 0.4152 0.1110
vt 0.8854 0.4518
vt 0.1144 0.5412
vt 0.5846 0.8825
vt 0.0741 0.4311
vt 0.5276 0.0748
vt 0.0019 0.4307
vt 0.4730 0.9918
vt 0.1120 0.5191
vt 0.4929 0.8769
vt 0.1199 0.5372
vt 0.4877 0.1099
vt 0.5067 0.1163
vt 0.8878 0.4740
vt 0.5119 0.8833
vt 0.4341 0.1097
vt 0.1067 0.4658
vt 0.1113 0.4501
vt 0.5657 0.8837
vt 0.8933 0.5274
vt 0.8886 0.5432
vt 0.4189 0.1158
vt 0.8798 0.4558
vt 0.5809 0.8776
vn -0.1859 0.3802 -0.9060
vn 0.1951 0.0000 -0.9808
vn -0.1951 0.0000 -0.9808
vn -0.9060 0.3802 0.1859
vn -0.9808 0.0000 -0.1951
vn -0.9808 0.0000 0.1951
vn -0.5091 0.3802 0.7721
vn -0.8314 0.0000 0.5556
vn -0.5556 0.0000 0.8314
vn 0.8314 0.0000 -0.5556
vn 0.5091 0.3802 -0.7721
vn 0.7721 0.3802 -0.5091
vn -0.5556 0.0000 -0.8314
vn -0.7721 0.3802 -0.5091
vn -0.5091 0.3802 -0.7721
vn 0.9060 0.3802 -0.1859
vn 0.9808 0.0000 0.1951
vn 0.9808 0.0000 -0.1951
vn 0.5556 0.0000 0.8314
vn 0.7721 0.3802 0.5091
vn 0.5091 0.3802 0.7721
vn -0.4021 0.9128 -0.0714
vn -0.4021 0.9128 0.0714
vn 0.0714 0.9128 -0.4021
vn 0.1859 0.3802 -0.9060
vn 0.4021 0.9128 0.0714
vn 0.9060 0.3802 0.1859
vn -0.0714 0.9128 0.4021
vn 0.1859 0.3802 0.9060
vn 0.0714 0.9128 0.4021
vn 0.3348 0.9128 -0.2338
vn 0.2338 0.9128 -0.3348
vn -0.3348 0.9128 0.2338
vn -0.2338 0.9128 0.3348
vn 0.2338 0.9128 0.3348
vn 0.3348 0.9128 0.2338
vn -0.2338 0.9128 -0.3348
vn -0.3348 0.9128 -0.2338
vn -0.1859 0.3802 0.9060
vn -0.9060 0.3802 -0.1859
vn -0.0714 0.9128 -0.4021
vn 0.4021 0.9128 -0.0714
vn -0.1951 0.0000 0.9808
vn -0.7721 0.3802 0.5091
vn -0.8314 0.0000 -0.5556
vn 0.1951 0.0000 0.9808
vn 0.5556 0.0000 -0.8314
vn 0.8314 0.0000 0.5556
vn 0.0000 1.0000 0.0000
usemtl Base
s 1
f 27/1/1 13/2/2 8/3/3
f 19/4/4 5/5/5 4/6/6
f 23/7/7 3/8/8 2/9/9
f 15/10/10 47/11/11 44/12/12
f 7/13/13 31/14/14 28/15/15
f 43/16/16 9/17/17 16/18/18
f 11/19/19 39/20/20 36/21/21
f 59/22/22 19/4/4 58/23/23
f 27/1/1 56/24/24 48/25/25
f 43/16/16 63/26/26 40/27/27
f 50/28/28 35/29/29 53/30/30
f 61/31/31 47/11/11 55/32/32
f 57/33/33 23/7/7 49/34/34
f 54/35/35 39/20/20 64/36/36
f 52/37/37 31/14/14 60/38/38
f 50/28/28 23/7/7 24/39/39
f 19/40/4 57/33/33 58/23/23
f 59/22/22 31/14/14 32/41/40
f 27/42/1 52/37/37 51/43/41
f 56/24/24 47/11/11 48/44/25
f 43/45/16 61/31/31 62/46/42
f 63/26/26 39/20/20 40/47/27
f 35/48/29 54/35/35 53/30/30
f 24/39/39 2/9/9 1/49/43
f 4/50/6 20/51/44 19/40/4
f 6/52/45 32/41/40 31/14/14
f 36/21/21 12/53/46 11/19/19
f 8/54/3 28/15/15 27/42/1
f 14/55/47 48/44/25 47/11/11
f 40/47/27 10/56/48 9/57/17
f 44/12/12 16/58/18 15/10/10
f 35/29/29 1/59/43 12/60/46
f 66/61/49 50/28/28 67/62/49
f 69/63/49 51/43/41 52/37/37
f 71/64/49 53/30/30 54/35/35
f 72/65/49 56/24/24 73/66/49
f 74/67/49 58/23/23 57/33/33
f 77/68/49 59/22/22 76/69/49
f 78/70/49 62/46/42 61/31/31
f 81/71/49 63/26/26 80/72/49
f 69/63/49 60/38/38 77/68/49
f 76/69/49 58/23/23 75/73/49
f 74/67/49 49/34/34 66/61/49
f 67/62/49 53/30/30 70/74/49
f 73/66/49 51/43/41 68/75/49
f 80/72/49 62/46/42 79/76/49
f 78/70/49 55/32/32 72/65/49
f 71/64/49 64/36/36 81/71/49
f 27/1/1 48/25/25 13/2/2
f 19/4/4 32/77/40 5/5/5
f 23/7/7 20/51/44 3/8/8
f 15/10/10 14/55/47 47/11/11
f 7/13/13 6/52/45 31/14/14
f 43/16/16 40/27/27 9/17/17
f 11/19/19 10/56/48 39/20/20
f 59/22/22 32/77/40 19/4/4
f 27/1/1 51/43/41 56/24/24
f 43/16/16 62/46/42 63/26/26
f 50/28/28 24/78/39 35/29/29
f 61/31/31 44/12/12 47/11/11
f 57/33/33 20/51/44 23/7/7
f 54/35/35 36/21/21 39/20/20
f 52/37/37 28/15/15 31/14/14
f 50/28/28 49/34/34 23/7/7
f 19/40/4 20/51/44 57/33/33
f 59/22/22 60/38/38 31/14/14
f 27/42/1 28/15/15 52/37/37
f 56/24/24 55/32/32 47/11/11
f 43/45/16 44/12/12 61/31/31
f 63/26/26 64/36/36 39/20/20
f 35/48/29 36/21/21 54/35/35
f 24/39/39 23/7/7 2/9/9
f 4/50/6 3/8/8 20/51/44
f 6/52/45 5/79/5 32/41/40
f 36/21/21 35/48/29 12/53/46
f 8/54/3 7/13/13 28/15/15
f 14/55/47 13/80/2 48/44/25
f 40/47/27 39/20/20 10/56/48
f 44/12/12 43/45/16 16/58/18
f 35/29/29 24/78/39 1/59/43
f 66/61/49 49/34/34 50/28/28
f 69/63/49 68/75/49 51/43/41
f 71/64/49 70/74/49 53/30/30
f 72/65/49 55/32/32 56/24/24
f 74/67/49 75/73/49 58/23/23
f 77/68/49 60/38/38 59/22/22
f 78/70/49 79/76/49 62/46/42
f 81/71/49 64/36/36 63/26/26
f 69/63/49 52/37/37 60/38/38
f 76/69/49 59/22/22 58/23/23
f 74/67/49 57/33/33 49/34/34
f 67/62/49 50/28/28 53/30/30
f 73/66/49 56/24/24 51/43/41
f 80/72/49 63/26/26 62/46/42
f 78/70/49 61/31/31 55/32/32
f 71/64/49 54/35/35 64/36/36
f 26/81/49 46/82/49 25/83/49
f 21/84/49 67/62/49 22/85/49
f 26/81/49 68/75/49 69/63/49
f 34/86/49 70/74/49 71/64/49
f 45/87/49 73/66/49 46/82/49
f 18/88/49 75/73/49 74/67/49
f 29/89/49 76/69/49 30/90/49
f 42/91/49 79/76/49 78/70/49
f 37/92/49 80/72/49 38/93/49
f 26/81/49 77/68/49 29/89/49
f 30/90/49 75/73/49 17/94/49
f 18/88/49 66/61/49 21/84/49
f 22/85/49 70/74/49 33/95/49
f 46/82/49 68/75/49 25/83/49
f 38/93/49 79/76/49 41/96/49
f 42/91/49 72/65/49 45/87/49
f 34/86/49 81/71/49 37/92/49
f 38/93/49 30/90/49 17/94/49
f 41/96/49 29/89/49 30/90/49
f 42/91/49 26/81/49 29/89/49
f 37/92/49 17/94/49 18/88/49
f 22/85/49 34/86/49 21/84/49
f 21/84/49 37/92/49 18/88/49
f 26/81/49 45/87/49 46/82/49
f 21/84/49 66/61/49 67/62/49
f 26/81/49 25/83/49 68/75/49
f 34/86/49 33/95/49 70/74/49
f 45/87/49 72/65/49 73/66/49
f 18/88/49 17/94/49 75/73/49
f 29/89/49 77/68/49 76/69/49
f 42/91/49 41/96/49 79/76/49
f 37/92/49 81/71/49 80/72/49
f 26/81/49 69/63/49 77/68/49
f 30/90/49 76/69/49 75/73/49
f 18/88/49 74/67/49 66/61/49
f 22/85/49 67/62/49 70/74/49
f 46/82/49 73/66/49 68/75/49
f 38/93/49 80/72/49 79/76/49
f 42/91/49 78/70/49 72/65/49
f 34/86/49 71/64/49 81/71/49
f 38/93/49 41/96/49 30/90/49
f 41/96/49 42/91/49 29/89/49
f 42/91/49 45/87/49 26/81/49
f 37/92/49 38/93/49 17/94/49
f 22/85/49 33/95/49 34/86/49
f 21/84/49 34/86/49 37/92/49
