# Blender v2.78 (sub 0) OBJ File: ''
# www.blender.org
mtllib ground.mtl
o Plane
v -0.500000 0.000000 0.500000
v 0.500000 0.000000 0.500000
v -0.500000 0.000000 -0.500000
v 0.500000 0.000000 -0.500000
v -0.500000 0.000000 -0.166667
v -0.500000 0.000000 0.166667
v -0.166667 0.000000 0.500000
v 0.166667 0.000000 0.500000
v 0.500000 0.000000 0.166667
v 0.500000 0.000000 -0.166667
v 0.166667 0.000000 -0.500000
v -0.166667 0.000000 -0.500000
v -0.166667 0.000000 0.166667
v -0.166667 0.000000 -0.166667
v 0.166667 0.000000 0.166667
v 0.166667 0.000000 -0.166667
vt 0.9999 0.6666
vt 0.6666 0.9999
vt 0.6666 0.6666
vt 0.3334 0.6666
vt 0.0001 0.9999
vt 0.0001 0.6666
vt 0.3334 0.9999
vt 0.3334 0.0001
vt 0.0001 0.3334
vt 0.0001 0.0001
vt 0.3334 0.3334
vt 0.6666 0.0001
vt 0.6666 0.3334
vt 0.9999 0.0001
vt 0.9999 0.3334
vt 0.9999 0.9999
vn 0.0000 1.0000 0.0000
usemtl Ground
s off
f 10/1/1 11/2/1 16/3/1
f 14/4/1 3/5/1 5/6/1
f 16/3/1 12/7/1 14/4/1
f 7/8/1 6/9/1 1/10/1
f 13/11/1 5/6/1 6/9/1
f 8/12/1 13/11/1 7/8/1
f 15/13/1 14/4/1 13/11/1
f 2/14/1 15/13/1 8/12/1
f 9/15/1 16/3/1 15/13/1
f 10/1/1 4/16/1 11/2/1
f 14/4/1 12/7/1 3/5/1
f 16/3/1 11/2/1 12/7/1
f 7/8/1 13/11/1 6/9/1
f 13/11/1 14/4/1 5/6/1
f 8/12/1 15/13/1 13/11/1
f 15/13/1 16/3/1 14/4/1
f 2/14/1 9/15/1 15/13/1
f 9/15/1 10/1/1 16/3/1
